<?xml version="1.0" standalone="no"?>
<!DOCTYPE svg PUBLIC "-//W3C//DTD SVG 20010904//EN"
 "http://www.w3.org/TR/2001/REC-SVG-20010904/DTD/svg10.dtd">
<svg version="1.0" xmlns="http://www.w3.org/2000/svg"
 width="700.000000pt" height="700.000000pt" viewBox="0 0 700.000000 700.000000"
 preserveAspectRatio="xMidYMid meet">
<metadata>
Created by potrace 1.11, written by Peter Selinger 2001-2013
</metadata>
<g transform="translate(0.000000,700.000000) scale(0.100000,-0.100000)"
fill="#000000" stroke="none">
<path d="M3279 6996 c-2 -2 -42 -7 -88 -10 -116 -10 -250 -28 -361 -51 -14 -3
-38 -8 -55 -11 -205 -37 -560 -158 -790 -270 -260 -126 -565 -322 -746 -481
-250 -219 -442 -431 -612 -675 -297 -426 -515 -968 -583 -1448 -2 -19 -7 -45
-9 -56 -3 -12 -7 -48 -11 -80 -3 -33 -7 -75 -9 -94 -2 -19 -7 -99 -11 -177
l-6 -143 294 0 293 0 1 58 c1 140 15 297 39 432 20 112 30 157 52 240 267
1025 1066 1824 2093 2094 151 40 343 71 505 83 274 20 538 3 820 -52 98 -19
367 -96 405 -116 8 -4 42 -17 75 -30 245 -91 544 -267 785 -463 103 -83 311
-293 398 -401 l72 -90 -144 -3 -144 -3 -1 -289 0 -290 27 -1 c15 0 221 0 458
0 469 -1 491 1 561 54 76 58 93 97 249 569 82 246 146 448 144 450 -3 2 -127
44 -277 94 l-272 90 -57 -173 c-31 -96 -60 -170 -64 -166 -4 4 -33 42 -66 83
-177 226 -404 448 -637 623 -48 36 -101 74 -117 84 -17 9 -30 21 -30 25 0 4
-6 8 -13 8 -8 0 -22 9 -32 20 -10 11 -22 20 -26 20 -4 0 -43 22 -87 49 -344
214 -831 392 -1242 455 -19 3 -44 7 -55 10 -11 2 -49 7 -85 10 -36 4 -78 9
-95 12 -36 5 -541 15 -546 10z"/>
<path d="M3340 5537 c-3 -3 -39 -8 -80 -11 -41 -4 -104 -14 -140 -21 -37 -8
-78 -16 -93 -19 -45 -8 -198 -57 -277 -88 -180 -72 -390 -194 -533 -310 -85
-70 -252 -238 -318 -323 -172 -217 -308 -492 -375 -756 -49 -195 -59 -281 -59
-509 0 -208 9 -302 45 -455 6 -27 13 -57 15 -65 5 -25 72 -222 90 -265 151
-361 420 -689 745 -906 122 -81 200 -124 340 -187 58 -26 250 -93 250 -87 0 3
12 0 28 -6 35 -14 209 -48 287 -57 79 -9 382 -9 465 0 316 35 640 154 905 333
143 97 168 118 306 255 218 218 367 449 473 734 35 94 89 291 100 366 17 117
21 183 21 340 0 225 -11 323 -59 511 -168 661 -672 1202 -1326 1424 -81 28
-165 51 -219 60 -19 3 -37 7 -40 9 -3 2 -28 7 -56 11 -27 4 -61 9 -75 11 -35
6 -415 16 -420 11z m450 -723 c0 -142 0 -144 23 -145 12 0 142 0 290 0 147 0
268 -3 268 -7 3 -18 5 -558 2 -568 -3 -7 -159 -10 -506 -9 -276 0 -519 -3
-540 -8 -51 -10 -82 -34 -103 -79 -32 -71 -4 -153 67 -189 29 -16 63 -18 239
-19 205 -2 277 -10 368 -44 52 -19 141 -66 160 -83 7 -7 17 -13 20 -13 4 0 36
-27 71 -61 152 -147 231 -343 225 -555 -10 -305 -231 -589 -523 -670 l-61 -17
0 -153 0 -152 -287 1 -288 0 -5 146 -5 145 -290 0 -290 1 0 290 0 290 510 1
c281 0 526 4 546 8 56 10 109 76 109 136 0 67 -47 128 -110 143 -14 3 -117 7
-229 8 -224 2 -285 12 -408 69 -292 135 -460 455 -409 775 44 273 252 508 515
581 l61 17 0 153 0 153 290 0 290 0 0 -145z"/>
<path d="M6419 3498 c0 -2 -2 -39 -4 -83 -3 -76 -9 -157 -20 -270 -5 -43 -19
-129 -40 -240 -26 -135 -92 -348 -160 -516 -214 -523 -596 -992 -1065 -1306
-192 -128 -412 -241 -615 -316 -187 -69 -460 -138 -600 -153 -27 -3 -56 -7
-63 -9 -70 -24 -548 -23 -712 0 -138 21 -191 31 -315 60 -284 68 -575 184
-790 315 -37 22 -69 40 -71 40 -16 0 -298 209 -379 280 -88 77 -256 250 -334
345 l-82 100 144 3 145 3 0 289 c1 265 -1 290 -16 291 -98 5 -860 2 -900 -4
-88 -13 -158 -58 -205 -132 -32 -51 -322 -924 -311 -935 5 -4 128 -47 273 -95
212 -70 265 -85 272 -74 5 8 32 85 60 172 29 86 56 154 60 150 4 -5 44 -55 90
-113 145 -183 346 -383 555 -550 47 -38 174 -129 229 -164 33 -21 79 -51 102
-67 23 -16 44 -29 47 -29 4 0 24 -11 46 -25 66 -42 291 -152 411 -201 143 -59
313 -115 449 -149 58 -14 121 -30 140 -35 95 -24 306 -55 450 -68 168 -14 594
-7 711 13 13 2 42 6 64 10 708 103 1363 412 1873 880 448 412 775 916 964
1490 75 225 135 499 153 690 4 39 8 77 11 85 2 8 6 84 9 168 l6 152 -291 0
c-159 0 -290 -1 -291 -2z"/>
</g>
</svg>
